HIERARCHY
ROOT mixamorig:Hips
{
	OFFSET 0.000000 99.791901 0.000000
	CHANNELS 6 Xposition Yposition Zposition Xrotation Yrotation Zrotation
	JOINT mixamorig:Spine
	{
		OFFSET 0.000038 9.923500 -1.227300
		CHANNELS 6 Xposition Yposition Zposition Xrotation Yrotation Zrotation
		JOINT mixamorig:Spine1
		{
			OFFSET -0.001154 11.645462 -1.422353
			CHANNELS 3 Xrotation Yrotation Zrotation
			JOINT mixamorig:Spine2
			{
				OFFSET -0.001065 13.360161 -1.626458
				CHANNELS 3 Xrotation Yrotation Zrotation
				JOINT mixamorig:Neck
				{
					OFFSET -0.001308 15.032516 0.792905
					CHANNELS 6 Xposition Yposition Zposition Xrotation Yrotation Zrotation
					JOINT mixamorig:Head
					{
						OFFSET -0.000902 10.321808 3.142400
						CHANNELS 6 Xposition Yposition Zposition Xrotation Yrotation Zrotation
						JOINT mixamorig:HeadTop_End
						{
							OFFSET -0.001416 18.474701 6.636400
							CHANNELS 6 Xposition Yposition Zposition Xrotation Yrotation Zrotation
							End Site
							{
								OFFSET -0.001707 19.630493 0.000000
							}
						}
					}
				}
				JOINT mixamorig:LeftShoulder
				{
					OFFSET 6.105007 9.110962 0.705601
					CHANNELS 6 Xposition Yposition Zposition Xrotation Yrotation Zrotation
					JOINT mixamorig:LeftArm
					{
						OFFSET 12.655048 -0.266434 -2.600898
						CHANNELS 3 Xrotation Yrotation Zrotation
						JOINT mixamorig:LeftForeArm
						{
							OFFSET 27.404696 0.000000 0.000000
							CHANNELS 3 Xrotation Yrotation Zrotation
							JOINT mixamorig:LeftHand
							{
								OFFSET 27.614513 0.000000 0.000000
								CHANNELS 3 Xrotation Yrotation Zrotation
								JOINT mixamorig:LeftHandThumb1
								{
									OFFSET 3.788795 -2.167099 3.003002
									CHANNELS 6 Xposition Yposition Zposition Xrotation Yrotation Zrotation
									JOINT mixamorig:LeftHandThumb2
									{
										OFFSET 3.675461 -2.122025 2.122029
										CHANNELS 6 Xposition Yposition Zposition Xrotation Yrotation Zrotation
										JOINT mixamorig:LeftHandThumb3
										{
											OFFSET 3.394363 -1.959732 1.959735
											CHANNELS 6 Xposition Yposition Zposition Xrotation Yrotation Zrotation
											JOINT mixamorig:LeftHandThumb4
											{
												OFFSET 2.679405 -1.546951 1.546957
												CHANNELS 6 Xposition Yposition Zposition Xrotation Yrotation Zrotation
												End Site
												{
													OFFSET 2.400513 -1.530563 1.964770
												}
											}
										}
									}
								}
								JOINT mixamorig:LeftHandIndex1
								{
									OFFSET 12.266594 -0.231796 2.822001
									CHANNELS 6 Xposition Yposition Zposition Xrotation Yrotation Zrotation
									JOINT mixamorig:LeftHandIndex2
									{
										OFFSET 3.891998 0.000000 0.000000
										CHANNELS 3 Xrotation Yrotation Zrotation
										JOINT mixamorig:LeftHandIndex3
										{
											OFFSET 3.415207 0.000000 0.000000
											CHANNELS 3 Xrotation Yrotation Zrotation
											JOINT mixamorig:LeftHandIndex4
											{
												OFFSET 3.077995 0.000000 0.000000
												CHANNELS 3 Xrotation Yrotation Zrotation
												End Site
												{
													OFFSET 3.078003 0.000000 0.000140
												}
											}
										}
									}
								}
								JOINT mixamorig:LeftHandMiddle1
								{
									OFFSET 12.775497 0.000000 0.000000
									CHANNELS 6 Xposition Yposition Zposition Xrotation Yrotation Zrotation
									JOINT mixamorig:LeftHandMiddle2
									{
										OFFSET 3.613998 0.000000 0.000000
										CHANNELS 3 Xrotation Yrotation Zrotation
										JOINT mixamorig:LeftHandMiddle3
										{
											OFFSET 3.459793 0.000000 0.000000
											CHANNELS 3 Xrotation Yrotation Zrotation
											JOINT mixamorig:LeftHandMiddle4
											{
												OFFSET 3.680214 0.000000 0.000000
												CHANNELS 3 Xrotation Yrotation Zrotation
												End Site
												{
													OFFSET 3.680199 0.000031 -0.004817
												}
											}
										}
									}
								}
								JOINT mixamorig:LeftHandRing1
								{
									OFFSET 12.146996 0.009995 -2.216599
									CHANNELS 6 Xposition Yposition Zposition Xrotation Yrotation Zrotation
									JOINT mixamorig:LeftHandRing2
									{
										OFFSET 3.601196 0.000000 0.000000
										CHANNELS 3 Xrotation Yrotation Zrotation
										JOINT mixamorig:LeftHandRing3
										{
											OFFSET 3.307304 0.000000 0.000000
											CHANNELS 3 Xrotation Yrotation Zrotation
											JOINT mixamorig:LeftHandRing4
											{
												OFFSET 3.660095 0.000000 0.000000
												CHANNELS 3 Xrotation Yrotation Zrotation
												End Site
												{
													OFFSET 3.660095 -0.000107 0.005639
												}
											}
										}
									}
								}
								JOINT mixamorig:LeftHandPinky1
								{
									OFFSET 10.908195 -0.226105 -4.725800
									CHANNELS 6 Xposition Yposition Zposition Xrotation Yrotation Zrotation
									JOINT mixamorig:LeftHandPinky2
									{
										OFFSET 4.136703 0.000000 0.000000
										CHANNELS 3 Xrotation Yrotation Zrotation
										JOINT mixamorig:LeftHandPinky3
										{
											OFFSET 2.594803 0.000000 0.000000
											CHANNELS 3 Xrotation Yrotation Zrotation
											JOINT mixamorig:LeftHandPinky4
											{
												OFFSET 2.923904 0.000000 0.000000
												CHANNELS 3 Xrotation Yrotation Zrotation
												End Site
												{
													OFFSET 2.923897 0.000015 -0.003363
												}
											}
										}
									}
								}
							}
						}
					}
				}
				JOINT mixamorig:RightShoulder
				{
					OFFSET -6.106493 9.110001 0.705582
					CHANNELS 6 Xposition Yposition Zposition Xrotation Yrotation Zrotation
					JOINT mixamorig:RightArm
					{
						OFFSET -12.655064 -0.265533 -2.600914
						CHANNELS 3 Xrotation Yrotation Zrotation
						JOINT mixamorig:RightForeArm
						{
							OFFSET -27.404697 0.000000 -0.000000
							CHANNELS 3 Xrotation Yrotation Zrotation
							JOINT mixamorig:RightHand
							{
								OFFSET -27.614510 0.000000 -0.000000
								CHANNELS 3 Xrotation Yrotation Zrotation
								JOINT mixamorig:RightHandThumb1
								{
									OFFSET -3.788803 -2.167099 3.003001
									CHANNELS 6 Xposition Yposition Zposition Xrotation Yrotation Zrotation
									JOINT mixamorig:RightHandThumb2
									{
										OFFSET -3.675461 -2.122025 2.122028
										CHANNELS 6 Xposition Yposition Zposition Xrotation Yrotation Zrotation
										JOINT mixamorig:RightHandThumb3
										{
											OFFSET -3.394363 -1.959732 1.959735
											CHANNELS 6 Xposition Yposition Zposition Xrotation Yrotation Zrotation
											JOINT mixamorig:RightHandThumb4
											{
												OFFSET -2.679405 -1.546951 1.546957
												CHANNELS 6 Xposition Yposition Zposition Xrotation Yrotation Zrotation
												End Site
												{
													OFFSET -2.398972 -1.531448 1.965965
												}
											}
										}
									}
								}
								JOINT mixamorig:RightHandIndex1
								{
									OFFSET -12.266602 -0.231796 2.822000
									CHANNELS 6 Xposition Yposition Zposition Xrotation Yrotation Zrotation
									JOINT mixamorig:RightHandIndex2
									{
										OFFSET -3.891998 0.000000 0.000000
										CHANNELS 3 Xrotation Yrotation Zrotation
										JOINT mixamorig:RightHandIndex3
										{
											OFFSET -3.415207 0.000000 0.000000
											CHANNELS 3 Xrotation Yrotation Zrotation
											JOINT mixamorig:RightHandIndex4
											{
												OFFSET -3.077995 0.000000 0.000000
												CHANNELS 3 Xrotation Yrotation Zrotation
												End Site
												{
													OFFSET -3.077995 0.000504 -0.008460
												}
											}
										}
									}
								}
								JOINT mixamorig:RightHandMiddle1
								{
									OFFSET -12.775505 0.000000 -0.000000
									CHANNELS 6 Xposition Yposition Zposition Xrotation Yrotation Zrotation
									JOINT mixamorig:RightHandMiddle2
									{
										OFFSET -3.613998 0.000000 0.000000
										CHANNELS 3 Xrotation Yrotation Zrotation
										JOINT mixamorig:RightHandMiddle3
										{
											OFFSET -3.459793 0.000000 0.000000
											CHANNELS 3 Xrotation Yrotation Zrotation
											JOINT mixamorig:RightHandMiddle4
											{
												OFFSET -3.680214 0.000000 0.000000
												CHANNELS 3 Xrotation Yrotation Zrotation
												End Site
												{
													OFFSET -3.680176 0.000290 0.012574
												}
											}
										}
									}
								}
								JOINT mixamorig:RightHandRing1
								{
									OFFSET -12.147003 0.009995 -2.216600
									CHANNELS 6 Xposition Yposition Zposition Xrotation Yrotation Zrotation
									JOINT mixamorig:RightHandRing2
									{
										OFFSET -3.601196 0.000000 0.000000
										CHANNELS 3 Xrotation Yrotation Zrotation
										JOINT mixamorig:RightHandRing3
										{
											OFFSET -3.307304 0.000000 0.000000
											CHANNELS 3 Xrotation Yrotation Zrotation
											JOINT mixamorig:RightHandRing4
											{
												OFFSET -3.660103 0.000000 0.000000
												CHANNELS 3 Xrotation Yrotation Zrotation
												End Site
												{
													OFFSET -3.660103 0.000427 0.002204
												}
											}
										}
									}
								}
								JOINT mixamorig:RightHandPinky1
								{
									OFFSET -10.908203 -0.226105 -4.725801
									CHANNELS 6 Xposition Yposition Zposition Xrotation Yrotation Zrotation
									JOINT mixamorig:RightHandPinky2
									{
										OFFSET -4.136703 0.000000 0.000000
										CHANNELS 3 Xrotation Yrotation Zrotation
										JOINT mixamorig:RightHandPinky3
										{
											OFFSET -2.594803 0.000000 0.000000
											CHANNELS 3 Xrotation Yrotation Zrotation
											JOINT mixamorig:RightHandPinky4
											{
												OFFSET -2.923904 0.000000 0.000000
												CHANNELS 3 Xrotation Yrotation Zrotation
												End Site
												{
													OFFSET -2.923866 0.000595 -0.012896
												}
											}
										}
									}
								}
							}
						}
					}
				}
			}
		}
	}
	JOINT mixamorig:LeftUpLeg
	{
		OFFSET 9.124481 -6.656403 -0.055368
		CHANNELS 6 Xposition Yposition Zposition Xrotation Yrotation Zrotation
		JOINT mixamorig:LeftLeg
		{
			OFFSET 0.244688 -40.595383 -0.515629
			CHANNELS 3 Xrotation Yrotation Zrotation
			JOINT mixamorig:LeftFoot
			{
				OFFSET -0.244684 -42.047905 -2.059130
				CHANNELS 3 Xrotation Yrotation Zrotation
				JOINT mixamorig:LeftToeBase
				{
					OFFSET 0.373535 -7.208565 13.966596
					CHANNELS 3 Xrotation Yrotation Zrotation
					JOINT mixamorig:LeftToe_End
					{
						OFFSET -0.142057 -0.175231 9.997458
						CHANNELS 3 Xrotation Yrotation Zrotation
						End Site
						{
							OFFSET -0.142057 -0.175231 9.997458
						}
					}
				}
			}
		}
	}
	JOINT mixamorig:RightUpLeg
	{
		OFFSET -9.124419 -6.656395 -0.055432
		CHANNELS 6 Xposition Yposition Zposition Xrotation Yrotation Zrotation
		JOINT mixamorig:RightLeg
		{
			OFFSET -0.244683 -40.595413 -0.514284
			CHANNELS 3 Xrotation Yrotation Zrotation
			JOINT mixamorig:RightFoot
			{
				OFFSET 0.244687 -42.047836 -2.060526
				CHANNELS 3 Xrotation Yrotation Zrotation
				JOINT mixamorig:RightToeBase
				{
					OFFSET -0.373540 -7.208565 13.966594
					CHANNELS 3 Xrotation Yrotation Zrotation
					JOINT mixamorig:RightToe_End
					{
						OFFSET 0.141792 -0.175015 9.997463
						CHANNELS 3 Xrotation Yrotation Zrotation
						End Site
						{
							OFFSET 0.141792 -0.175015 9.997463
						}
					}
				}
			}
		}
	}
}
MOTION
Frames: 4
Frame Time: 0.016667
3.541803 98.267807 87.550629 0.913036 -0.206412 -1.417947 0.000039 9.923502 -1.227310 0.118332 0.383306 -0.281092 0.239001 0.779142 -0.603909 0.239001 0.779143 -0.603909 -0.001308 15.032515 0.792899 3.062859 0.107010 0.552106 -0.000902 10.321811 3.142398 1.752208 0.273896 3.133364 -0.001417 18.474686 6.636389 -0.000000 -0.000000 0.000000 6.105000 9.110968 0.705590 0.276309 -15.562455 -17.602333 3.757079 14.128537 -57.343024 17.876663 -27.461083 -0.047470 21.323560 1.805213 -0.709998 3.788800 -2.167090 3.003004 -4.345601 9.457287 -7.836150 3.675459 -2.122018 2.122025 2.321161 6.714612 2.170800 3.394360 -1.959763 1.959741 0.000005 0.000003 0.000005 2.679399 -1.546935 1.546955 -0.000004 -0.000001 0.000003 12.266595 -0.231770 2.821998 -1.129376 -6.337328 -37.936206 -3.696591 -3.549407 -65.370682 0.000001 -0.000001 0.000001 -0.000000 -0.000002 -0.000000 12.775514 0.000018 0.000003 -7.505491 -7.796321 -58.701200 -5.767759 -5.392661 -85.713355 -0.000000 0.000003 0.000002 0.000000 -0.000003 -0.000001 12.147021 0.010024 -2.216599 -10.455275 1.353037 -59.659756 -3.419819 -4.375616 -88.429093 -0.000001 -0.000000 0.000000 -0.000002 0.000001 0.000001 10.908199 -0.226100 -4.725799 -13.663907 5.874071 -69.362402 -1.415170 -6.191033 -79.204431 0.000003 -0.000000 0.000000 0.000005 -0.000000 -0.000003 -6.106500 9.110000 0.705576 1.542072 7.122419 16.685397 4.890148 -6.185654 63.672642 17.461817 32.060368 -9.478179 14.828645 13.431270 -19.587152 -3.788810 -2.167135 3.003008 -10.650068 -5.345620 0.156474 -3.675440 -2.122025 2.122046 28.859660 -3.344307 -1.691554 -3.394382 -1.959716 1.959732 0.000001 0.000008 -0.000002 -2.679395 -1.546947 1.546951 0.000001 0.000003 -0.000004 -12.266613 -0.231800 2.822005 -3.185873 -0.545663 53.852565 -5.615128 1.739221 76.593168 -0.000001 -0.000000 -0.000002 -0.000000 -0.000000 -0.000001 -12.775494 -0.000030 0.000011 -5.678010 -0.116054 60.816708 -7.053662 1.949734 82.801236 -0.000001 0.000000 0.000006 -0.000002 -0.000004 0.000001 -12.147015 0.009990 -2.216593 -4.029756 3.878137 58.358796 -3.758386 6.511287 90.714215 0.000003 -0.000001 0.000002 0.000002 -0.000002 0.000000 -10.908196 -0.226108 -4.725795 -3.917807 6.979864 54.411230 -3.938693 10.367471 97.139463 -0.000001 0.000012 0.000000 -0.000001 -0.000001 -0.000003 9.124481 -6.656405 -0.055383 -13.506729 8.575831 0.873297 22.683074 -9.893222 0.924604 -9.663455 0.037560 4.054924 -4.480953 3.953480 -4.958186 -0.000000 0.000000 0.000000 -9.124418 -6.656403 -0.055443 -18.867178 -7.267130 -2.355302 55.767047 -2.755636 -0.083530 7.451785 1.331626 -11.302312 -24.407929 -8.145854 13.420961 -0.000000 0.000001 -0.000001 
3.607938 98.668808 90.148735 1.068040 0.761418 -1.493992 0.000038 9.923507 -1.227307 0.148822 0.124195 -0.204865 0.298203 0.254735 -0.442340 0.298202 0.254736 -0.442340 -0.001309 15.032513 0.792900 3.068204 0.248118 0.360522 -0.000902 10.321820 3.142404 1.642990 0.457047 3.284820 -0.001416 18.474716 6.636399 -0.000001 -0.000000 -0.000000 6.105006 9.110951 0.705599 0.234849 -15.920910 -17.316386 3.358128 12.822884 -56.580946 18.055646 -29.834861 -0.149186 19.870414 1.235871 -0.642857 3.788806 -2.167092 3.003008 -4.345601 9.457292 -7.836151 3.675466 -2.122018 2.122022 2.321161 6.714610 2.170801 3.394373 -1.959749 1.959731 0.000001 0.000005 0.000006 2.679410 -1.546939 1.546945 0.000002 0.000000 0.000004 12.266589 -0.231787 2.822006 -1.108867 -6.344060 -37.677127 -3.708239 -3.554732 -65.476126 -0.000000 -0.000003 0.000001 -0.000000 0.000000 0.000001 12.775507 -0.000010 0.000000 -7.480544 -7.805984 -58.444105 -5.779144 -5.393527 -85.819319 -0.000005 0.000001 -0.000002 0.000004 0.000001 -0.000001 12.147025 0.009997 -2.216599 -10.431242 1.342009 -59.407332 -3.426323 -4.375715 -88.534900 -0.000000 -0.000002 0.000002 -0.000001 0.000001 0.000003 10.908197 -0.226104 -4.725798 -13.638377 5.862920 -69.112546 -1.417408 -6.191487 -79.310114 -0.000000 0.000001 0.000002 -0.000000 -0.000001 0.000003 -6.106490 9.109978 0.705575 1.627677 6.420129 17.351484 4.579392 -6.892314 63.299564 16.779273 28.231959 -7.875779 14.577922 14.214345 -18.724603 -3.788787 -2.167087 3.002994 -11.348236 -5.596315 -0.992584 -3.675449 -2.122028 2.122026 28.503570 -4.448858 -0.822853 -3.394382 -1.959716 1.959741 0.000001 0.000008 -0.000002 -2.679403 -1.546939 1.546959 0.000008 0.000003 -0.000004 -12.266612 -0.231790 2.821989 -3.172128 -0.579167 53.703841 -5.582254 1.731293 76.275352 -0.000002 -0.000000 -0.000001 -0.000001 -0.000002 0.000001 -12.775499 0.000003 0.000000 -5.670231 -0.133892 60.724719 -7.024750 1.945665 82.485271 -0.000001 0.000002 0.000002 -0.000003 0.000003 -0.000002 -12.147018 0.010002 -2.216603 -4.034181 3.879179 58.148317 -3.724240 6.510910 90.329190 0.000000 0.000000 0.000000 0.000001 0.000000 0.000001 -10.908223 -0.226107 -4.725804 -3.965232 7.050232 54.190192 -3.913643 10.369316 96.784791 0.000000 0.000011 0.000002 -0.000003 0.000002 0.000003 9.124480 -6.656408 -0.055367 -10.782839 8.899162 0.789710 20.428804 -11.217733 0.946541 -9.681011 0.052812 4.115402 -5.096189 3.962864 -4.926207 0.000000 0.000000 0.000000 -9.124419 -6.656403 -0.055428 -21.856822 -7.003138 -2.185053 53.711341 -3.227720 0.273111 3.858901 1.429625 -10.885562 -18.943060 -6.088343 12.673278 0.000000 0.000000 -0.000000 
3.650836 98.961761 92.818932 1.264841 1.755329 -1.425099 0.000038 9.923504 -1.227290 0.149082 -0.122205 -0.186720 0.297677 -0.243274 -0.401584 0.297675 -0.243274 -0.401584 -0.001309 15.032518 0.792910 3.433227 0.313472 0.491410 -0.000901 10.321815 3.142415 1.180782 0.664551 3.316940 -0.001416 18.474701 6.636394 -0.000000 -0.000000 0.000000 6.105003 9.110949 0.705598 0.313520 -15.976415 -16.571565 2.664314 11.472402 -56.081519 18.101521 -32.035076 -0.358262 18.823621 0.567947 -0.635058 3.788815 -2.167105 3.002994 -4.345600 9.457293 -7.836151 3.675478 -2.122012 2.122046 2.321157 6.714613 2.170802 3.394349 -1.959747 1.959726 0.000005 0.000006 0.000006 2.679399 -1.546923 1.546968 -0.000001 -0.000001 -0.000001 12.266601 -0.231792 2.821999 -1.086494 -6.344526 -37.390785 -3.719489 -3.559824 -65.577917 -0.000001 -0.000004 0.000002 -0.000002 -0.000003 0.000002 12.775495 0.000004 -0.000007 -7.452960 -7.810727 -58.159081 -5.790175 -5.394386 -85.921546 -0.000006 0.000005 0.000001 0.000001 0.000000 -0.000003 12.147019 0.009992 -2.216601 -10.405124 1.335925 -59.127206 -3.432569 -4.375761 -88.636984 0.000002 -0.000000 -0.000001 0.000002 -0.000001 -0.000000 10.908187 -0.226101 -4.725805 -13.612059 5.854004 -68.835097 -1.419559 -6.191883 -79.412144 -0.000002 -0.000000 0.000002 -0.000001 0.000001 0.000002 -6.106491 9.110016 0.705581 1.692416 5.874413 18.005934 4.006587 -7.645914 62.837515 15.891724 23.806001 -5.867128 14.389011 15.201638 -18.143334 -3.788796 -2.167114 3.003013 -12.116231 -5.947488 -2.328067 -3.675451 -2.122019 2.122034 28.331447 -5.290925 -0.191287 -3.394394 -1.959728 1.959738 0.000011 0.000013 -0.000003 -2.679404 -1.546953 1.546959 0.000001 0.000002 -0.000001 -12.266620 -0.231823 2.822005 -3.131532 -0.605009 52.985835 -5.540502 1.721229 75.876517 -0.000002 -0.000001 0.000001 -0.000000 0.000000 -0.000000 -12.775494 -0.000015 -0.000001 -5.641508 -0.159049 60.413276 -6.985800 1.940524 82.049157 -0.000001 0.000002 0.000004 -0.000002 -0.000002 -0.000002 -12.147019 0.009980 -2.216598 -4.015332 3.857536 57.797197 -3.674130 6.508740 89.733878 0.000003 0.000001 -0.000002 0.000002 0.000000 0.000001 -10.908203 -0.226106 -4.725792 -3.975160 7.070497 53.857763 -3.877149 10.367721 96.255390 0.000002 0.000012 0.000001 -0.000000 -0.000001 -0.000004 9.124481 -6.656408 -0.055364 -7.846417 9.209305 0.611282 17.768551 -12.568161 0.886518 -9.655975 0.075051 4.132782 -5.583672 3.971606 -4.905765 0.000000 0.000000 -0.000000 -9.124418 -6.656393 -0.055420 -24.351805 -6.724177 -2.206087 50.475340 -3.758248 0.500467 1.159164 1.548627 -10.299594 -13.832923 -4.518308 10.323279 -0.000001 0.000000 0.000000 
3.673285 98.970230 95.389900 1.468425 2.685073 -1.213010 0.000038 9.923520 -1.227312 0.175831 -0.341726 -0.171465 0.350469 -0.686916 -0.361114 0.350471 -0.686916 -0.361113 -0.001308 15.032534 0.792897 3.266444 0.431732 0.348813 -0.000902 10.321791 3.142405 1.022455 0.756348 3.506299 -0.001416 18.474701 6.636405 -0.000000 -0.000000 -0.000000 6.105008 9.110981 0.705590 0.247422 -16.370906 -16.461931 2.641648 10.773572 -54.875669 18.465049 -36.299156 -0.103212 17.145361 0.826258 -0.949599 3.788800 -2.167090 3.003000 -4.345601 9.457285 -7.836148 3.675457 -2.122004 2.122029 2.321163 6.714609 2.170801 3.394362 -1.959749 1.959734 0.000003 0.000006 0.000000 2.679382 -1.546933 1.546970 -0.000003 -0.000006 0.000006 12.266607 -0.231803 2.821995 -1.062833 -6.338853 -37.084601 -3.730767 -3.564940 -65.680144 0.000003 -0.000000 -0.000001 0.000002 -0.000000 -0.000001 12.775506 -0.000001 0.000001 -7.423510 -7.810550 -57.853608 -5.801256 -5.395207 -86.024286 -0.000007 0.000006 0.000001 -0.000001 -0.000003 -0.000000 12.147027 0.010006 -2.216601 -10.378730 1.334048 -58.826562 -3.438906 -4.375915 -88.739546 0.000003 -0.000001 -0.000001 0.000004 -0.000006 0.000000 10.908208 -0.226111 -4.725795 -13.586342 5.849318 -68.536755 -1.421731 -6.192289 -79.514603 -0.000001 -0.000001 -0.000001 -0.000001 0.000000 -0.000000 -6.106493 9.110008 0.705573 1.778662 5.347351 18.273251 3.924420 -8.288000 62.514604 15.328425 20.522309 -4.361935 13.641967 15.596836 -17.303958 -3.788803 -2.167107 3.003002 -12.881622 -6.316854 -3.690746 -3.675450 -2.122025 2.122038 28.285048 -5.954435 0.282618 -3.394381 -1.959749 1.959731 0.000005 0.000011 -0.000002 -2.679395 -1.546929 1.546961 0.000005 0.000001 -0.000001 -12.266603 -0.231795 2.821996 -3.062068 -0.640084 51.755560 -5.485446 1.707927 75.372360 -0.000004 0.000001 0.000001 0.000000 -0.000001 -0.000001 -12.775496 -0.000013 0.000000 -5.594093 -0.190624 59.883178 -6.933795 1.937386 81.474233 0.000001 0.000003 0.000003 0.000002 -0.000003 0.000003 -12.147013 0.009984 -2.216597 -3.973387 3.817303 57.294062 -3.612448 6.503608 88.951630 -0.000001 -0.000002 0.000000 -0.000001 -0.000004 -0.000000 -10.908203 -0.226094 -4.725796 -3.952974 7.056166 53.392559 -3.830026 10.362982 95.559736 0.000002 0.000011 -0.000002 -0.000001 0.000000 -0.000002 9.124483 -6.656395 -0.055373 -5.345574 9.761972 0.623698 15.683284 -13.911351 0.398456 -9.932485 0.155970 3.849532 -5.801980 3.580795 -4.410946 -0.000001 0.000000 -0.000000 -9.124420 -6.656386 -0.055437 -26.756984 -6.307646 -2.414999 46.743827 -4.212108 0.603455 -0.802936 1.607875 -9.688348 -10.057520 -3.069430 5.104112 0.000001 -0.000000 -0.000000 
